<svg width="108" height="129" viewBox="0 0 108 129" fill="none" xmlns="http://www.w3.org/2000/svg">
<path fill-rule="evenodd" clip-rule="evenodd" d="M93.4148 24.002L76.5355 7.12267C74.5829 5.17004 71.4171 5.17005 69.4645 7.12267L60 16.5871L45.5355 2.12267C43.5829 0.170047 40.4171 0.170048 38.4645 2.12267L16.5852 24.002H3C1.34315 24.002 0 25.3451 0 27.002V32.002C0 33.6588 1.34315 35.002 3 35.002H4.15736L19.443 123.85C19.8557 126.249 21.9363 128.002 24.3706 128.002H28.998C28.9993 128.002 29.0007 128.002 29.002 128.002H48.998C48.9993 128.002 49.0007 128.002 49.002 128.002H82.6649C85.0796 128.002 87.1492 126.276 87.5834 123.901L90.7304 106.685C91.005 106.392 91.0698 105.973 90.9249 105.621L99.6776 57.7385L99.7071 57.7091C100.02 57.3965 100.082 56.9284 99.8942 56.5537L103.834 35.002H105C106.657 35.002 108 33.6588 108 32.002V27.002C108 25.3451 106.657 24.002 105 24.002H93.4148ZM44.1213 3.53688C42.9497 2.36531 41.0503 2.36531 39.8787 3.53688L19.4136 24.002H64.5864L44.1213 3.53688ZM67.4148 24.002H90.5864L75.1213 8.53688C73.9497 7.36531 72.0503 7.36531 70.8787 8.53688L61.4142 18.0013L67.4148 24.002ZM97.8224 56.7654L99.2947 48.7109L99.2929 48.7091L94 43.4162L85.4142 52.002L94 60.5877L97.8224 56.7654ZM92.5858 62.002L84 53.4162L75.4142 62.002L84 70.5877L92.5858 62.002ZM85.4142 72.002L94 63.4162L96.2038 65.62L93.55 80.1377L85.4142 72.002ZM82.5858 72.002L74 63.4162L65.4142 72.002L74 80.5877L82.5858 72.002ZM75.4142 82.002L84 73.4162L92.5858 82.002L84 90.5877L75.4142 82.002ZM72.5858 82.002L64 73.4162L55.4142 82.002L64 90.5877L72.5858 82.002ZM65.4142 92.002L74 83.4162L82.5858 92.002L74 100.588L65.4142 92.002ZM62.5858 92.002L54 83.4162L45.4142 92.002L54 100.588L62.5858 92.002ZM55.4142 102.002L64 93.4162L72.5858 102.002L64 110.588L55.4142 102.002ZM52.5858 102.002L44 93.4162L35.4142 102.002L44 110.588L52.5858 102.002ZM45.4142 112.002L54 103.416L62.5858 112.002L54 120.588L45.4142 112.002ZM42.5858 112.002L34 103.416L25.4142 112.002L34 120.588L42.5858 112.002ZM35.4142 122.002L44 113.416L52.5858 122.002L48.5858 126.002H39C39 125.746 38.9024 125.49 38.7071 125.295L35.4142 122.002ZM32.5858 122.002L24 113.416L20.7071 116.709C20.5857 116.83 20.4408 116.914 20.2871 116.96L21.414 123.511C21.6617 124.95 22.91 126.002 24.3706 126.002H28.5858L32.5858 122.002ZM31.4142 126.002L34 123.416L36.5858 126.002H31.4142ZM19.8967 114.691L22.5858 112.002L18.7792 108.195L19.8967 114.691ZM24 110.588L32.5858 102.002L24 93.4162L17.7071 99.7091C17.6046 99.8116 17.4853 99.8872 17.3582 99.9359L18.2345 105.03C18.4077 105.071 18.5719 105.16 18.7071 105.295L24 110.588ZM16.9609 97.6268L22.5858 92.002L14.6233 84.0395L16.9609 97.6268ZM25.4142 92.002L34 100.588L42.5858 92.002L34 83.4162L25.4142 92.002ZM32.5858 82.002L24 90.5877L15.4142 82.002L24 73.4162L32.5858 82.002ZM35.4142 82.002L44 90.5877L52.5858 82.002L44 73.4162L35.4142 82.002ZM42.5858 72.002L34 80.5877L25.4142 72.002L34 63.4162L42.5858 72.002ZM45.4142 72.002L54 80.5877L62.5858 72.002L54 63.4162L45.4142 72.002ZM52.5858 62.002L44 70.5877L35.4142 62.002L44 53.4162L52.5858 62.002ZM55.4142 62.002L64 70.5877L72.5858 62.002L64 53.4162L55.4142 62.002ZM62.5858 52.002L54 60.5877L45.4142 52.002L54 43.4162L62.5858 52.002ZM65.4142 52.002L74 60.5877L82.5858 52.002L74 43.4162L65.4142 52.002ZM72.5858 42.002L64 50.5877L55.4142 42.002L62.4142 35.002H65.5858L72.5858 42.002ZM75.4142 42.002L84 50.5877L92.5858 42.002L85.5858 35.002H82.4142L75.4142 42.002ZM79.5858 35.002L74 40.5877L68.4142 35.002H79.5858ZM95.4142 42.002L99.7318 46.3196L101.663 35.7528L95.4142 42.002ZM99.5858 35.002L94 40.5877L88.4142 35.002H99.5858ZM59.5858 35.002H48.4142L54 40.5877L59.5858 35.002ZM52.5858 42.002L45.5858 35.002H42.4142L35.4142 42.002L44 50.5877L52.5858 42.002ZM42.5858 52.002L34 43.4162L25.4142 52.002L34 60.5877L42.5858 52.002ZM32.5858 62.002L24 53.4162L15.4142 62.002L24 70.5877L32.5858 62.002ZM22.5858 72.002L14 63.4162L11.7071 65.7091C11.643 65.7732 11.5724 65.8267 11.4973 65.8698L14.0251 80.5626L22.5858 72.002ZM11.0894 63.4984L12.5858 62.002L10.4675 59.8836L11.0894 63.4984ZM14 60.5877L22.5858 52.002L14 43.4162L8.70711 48.7091C8.66272 48.7534 8.6152 48.7928 8.56526 48.8271L9.87973 56.4675L14 60.5877ZM8.15357 46.4342L12.5858 42.002L6.31162 35.7278L8.15357 46.4342ZM15.4142 42.002L24 50.5877L32.5858 42.002L25.5858 35.002H22.4142L15.4142 42.002ZM19.5858 35.002L14 40.5877L8.41421 35.002H19.5858ZM34 40.5877L39.5858 35.002H28.4142L34 40.5877ZM51.4142 126.002H56.5858L54 123.416L51.4142 126.002ZM55.4142 122.002L59.4142 126.002H69C69 125.746 69.0976 125.49 69.2929 125.295L72.5858 122.002L64 113.416L55.4142 122.002ZM65.4142 112.002L74 120.588L82.5858 112.002L74 103.416L65.4142 112.002ZM75.4142 102.002L84 110.588L88.875 105.713L90.022 99.4381L84 93.4162L75.4142 102.002ZM85.4142 92.002L90.4591 97.0468L92.716 84.7001L85.4142 92.002ZM88.2423 109.174L85.4142 112.002L87.3682 113.956L88.2423 109.174ZM84 113.416L75.4142 122.002L79.4142 126.002H82.6649C84.1137 126.002 85.3555 124.967 85.616 123.541L86.9311 116.347L84 113.416ZM74 123.416L71.4142 126.002H76.5858L74 123.416ZM95.4142 62.002L97.1897 60.2265L96.6409 63.2287L95.4142 62.002ZM105 33.002H3C2.44772 33.002 2 32.5542 2 32.002V27.002C2 26.4497 2.44772 26.002 3 26.002H105C105.552 26.002 106 26.4497 106 27.002V32.002C106 32.5542 105.552 33.002 105 33.002Z" fill="#F54747"/>
</svg>
